<svg xmlns="http://www.w3.org/2000/svg" xmlns:xlink="http://www.w3.org/1999/xlink" width="33" height="27" viewBox="0 0 33 27">
    <defs>
        <path id="a" d="M.004 27V.034H33V27z"/>
    </defs>
    <g fill="none" fill-rule="evenodd">
        <mask id="b" fill="#fff">
            <use xlink:href="#a"/>
        </mask>
        <path fill="#FFF" d="M11.22 15.771l-1.478.003a.769.769 0 0 0-.498.23l-4.393 4.478s-.002-3.967-.004-3.988a.784.784 0 0 0-.775-.723H1.858a.305.305 0 0 1-.301-.307V1.928c0-.17.135-.307.301-.307h22.137c.166 0 .302.138.302.307V7.12c0 .439.348.794.778.794.43 0 .778-.355.778-.794V1.928c0-1.044-.833-1.894-1.858-1.894H1.858C.834.034 0 .884 0 1.928v13.536c0 1.045.834 1.894 1.858 1.894h1.436v5.04c0 .32.19.61.48.733a.764.764 0 0 0 .849-.172l5.494-5.6h1.103c.43 0 .778-.356.778-.794a.786.786 0 0 0-.778-.794" mask="url(#b)"/>
        <path fill="#FFF" d="M31.443 20.868c0 .169-.135.307-.301.307h-1.313a.784.784 0 0 0-.776.732 929.3 929.3 0 0 0-.003 2.384l-2.827-2.881-.009-.009a.766.766 0 0 0-.544-.226H15.646a.305.305 0 0 1-.301-.307v-9.235c0-.17.135-.307.301-.307h15.496c.166 0 .301.138.301.307v9.235zm-.301-11.129H15.646c-1.024 0-1.858.85-1.858 1.894v9.235c0 1.044.834 1.894 1.858 1.894h9.701l3.93 4.006a.77.77 0 0 0 .85.172.794.794 0 0 0 .48-.734v-3.444h.535c1.024 0 1.858-.85 1.858-1.894v-9.235c0-1.044-.834-1.894-1.858-1.894z" mask="url(#b)"/>
        <path fill="#FFF" d="M23 16a1 1 0 1 0 0 2 1 1 0 0 0 0-2M5.743 5C5.333 5 5 5.448 5 6s.333 1 .743 1h13.514c.41 0 .743-.448.743-1s-.333-1-.743-1H5.743M11.214 11H5.786C5.352 11 5 11.448 5 12s.352 1 .786 1h5.428c.434 0 .786-.448.786-1s-.352-1-.786-1M20 16a1 1 0 1 0 0 2 1 1 0 0 0 0-2M27 16a1 1 0 1 0 0 2 1 1 0 0 0 0-2"/>
    </g>
</svg>
